<!DOCTYPE svg PUBLIC "-//W3C//DTD SVG 1.1//EN" "http://www.w3.org/Graphics/SVG/1.1/DTD/svg11.dtd">
<!-- Uploaded to: SVG Repo, www.svgrepo.com, Transformed by: SVG Repo Mixer Tools -->
<svg fill="#DD6B5B" height="800px" width="800px" version="1.1" id="Layer_1" xmlns="http://www.w3.org/2000/svg" xmlns:xlink="http://www.w3.org/1999/xlink" viewBox="0 0 512.006 512.006" xml:space="preserve" stroke="#DD6B5B">
<g id="SVGRepo_bgCarrier" stroke-width="0"/>
<g id="SVGRepo_tracerCarrier" stroke-linecap="round" stroke-linejoin="round"/>
<g id="SVGRepo_iconCarrier"> <g> <g> <g> <path d="M446.856,154.095C436.924,75.59,364.582,0,289.049,0c-44.338,0-87.774,21.612-116.824,55.447 c-0.245-0.089-0.496-0.164-0.742-0.251c-0.983-0.349-1.968-0.689-2.964-1.003c-0.423-0.133-0.853-0.248-1.278-0.374 c-0.88-0.262-1.761-0.518-2.649-0.752c-0.426-0.112-0.856-0.211-1.284-0.316c-0.916-0.226-1.834-0.441-2.759-0.637 c-0.396-0.083-0.793-0.16-1.191-0.238c-0.994-0.196-1.992-0.374-2.995-0.535c-0.336-0.054-0.671-0.107-1.008-0.156 c-1.131-0.167-2.266-0.31-3.406-0.433c-0.218-0.023-0.435-0.05-0.654-0.072c-2.833-0.282-5.691-0.441-8.571-0.441 c-5.934,0-11.724,0.611-17.321,1.755c-0.085,0.017-0.168,0.039-0.253,0.056c-1.292,0.268-2.573,0.562-3.843,0.887 c-0.2,0.051-0.396,0.111-0.595,0.164c-1.15,0.304-2.294,0.623-3.425,0.973c-0.273,0.084-0.541,0.179-0.813,0.266 c-1.049,0.336-2.093,0.683-3.124,1.057c-0.323,0.117-0.64,0.245-0.961,0.366c-0.97,0.366-1.936,0.74-2.89,1.139 c-0.356,0.149-0.707,0.309-1.061,0.463c-0.906,0.394-1.807,0.795-2.697,1.219c-0.38,0.181-0.753,0.372-1.13,0.558 c-0.85,0.42-1.695,0.848-2.529,1.295c-0.395,0.212-0.784,0.433-1.175,0.651c-0.801,0.446-1.597,0.899-2.383,1.37 c-0.403,0.241-0.799,0.491-1.198,0.739c-0.758,0.471-1.51,0.95-2.252,1.444c-0.406,0.27-0.806,0.547-1.207,0.824 c-0.717,0.496-1.429,0.998-2.13,1.514c-0.404,0.298-0.803,0.601-1.202,0.906c-0.681,0.52-1.355,1.047-2.019,1.587 c-0.398,0.323-0.791,0.65-1.182,0.98c-0.646,0.544-1.285,1.096-1.915,1.659c-0.389,0.347-0.774,0.698-1.156,1.052 c-0.612,0.567-1.216,1.143-1.812,1.727c-0.378,0.371-0.753,0.744-1.124,1.122c-0.58,0.591-1.151,1.19-1.714,1.797 c-0.363,0.391-0.724,0.784-1.08,1.182c-0.549,0.615-1.088,1.239-1.619,1.869c-0.346,0.411-0.692,0.822-1.031,1.239 c-0.519,0.639-1.026,1.288-1.526,1.942c-0.327,0.427-0.654,0.854-0.973,1.287c-0.49,0.665-0.966,1.341-1.437,2.02 c-0.305,0.441-0.612,0.88-0.909,1.327c-0.461,0.692-0.906,1.396-1.348,2.102c-0.282,0.451-0.566,0.9-0.84,1.357 c-0.433,0.722-0.847,1.455-1.259,2.19c-0.256,0.458-0.517,0.912-0.765,1.375c-0.405,0.755-0.79,1.522-1.173,2.29 c-0.228,0.458-0.462,0.913-0.683,1.376c-0.377,0.793-0.733,1.597-1.086,2.403c-0.199,0.454-0.406,0.904-0.597,1.362 c-0.351,0.839-0.677,1.689-1.002,2.541c-0.167,0.438-0.343,0.872-0.503,1.313c-0.325,0.896-0.623,1.805-0.919,2.715 c-0.133,0.41-0.277,0.815-0.404,1.228c-0.3,0.974-0.571,1.961-0.838,2.95c-0.097,0.359-0.205,0.712-0.297,1.072 c-0.279,1.094-0.527,2.2-0.764,3.31c-0.056,0.264-0.124,0.524-0.178,0.789c-0.265,1.301-0.497,2.613-0.703,3.934 c-0.012,0.079-0.029,0.157-0.041,0.237c-0.434,2.842-0.734,5.728-0.883,8.654c-33.83,21.759-56.753,61.902-56.753,102.789 c0,51.181,32.639,107.13,76.869,126.249l4.051,1.751h25.747c11.782,0,21.333-9.551,21.333-21.333 c0-11.782-9.551-21.333-21.333-21.333H90.152c-26.097-13.77-47.482-51.905-47.482-85.333c0-29.044,18.953-58.769,44.525-71.023 l12.115-5.805v-13.434c0-0.349,0.02-0.856,0.069-1.711c0.063-1.063,0.063-1.063,0.087-1.471l0.007-2.337 c-0.054-0.935-0.054-0.935-0.102-1.615c-0.049-19.771,12.178-36.079,29.198-41.984c4.434-1.528,9.187-2.37,14.139-2.37 c6.704,0,13.052,1.521,18.72,4.232c0.124,0.06,0.247,0.123,0.371,0.184c0.424,0.208,0.844,0.424,1.26,0.645 c0.218,0.116,0.435,0.233,0.651,0.352c0.314,0.174,0.624,0.355,0.934,0.536c0.579,0.341,1.152,0.694,1.717,1.062 c0.12,0.078,0.242,0.152,0.361,0.231l0.402,0.268c11.467,7.81,18.998,20.965,18.998,35.881c0,11.782,9.551,21.333,21.333,21.333 c11.782,0,21.333-9.551,21.333-21.333c0-21.614-7.987-41.349-21.147-56.463c21.119-22.725,51.408-37.182,81.407-37.182 c49.199,0,100.887,51.122,113.432,105.342c-5.923,0.105-11.871,0.508-17.732,1.311c-0.88,0.123-0.88,0.123-1.763,0.254 c-11.649,1.765-19.661,12.64-17.896,24.289c1.765,11.649,12.64,19.661,24.289,17.896c0.578-0.086,0.578-0.086,1.16-0.167 c8.911-1.22,18.862-1.18,28.185-0.349c1.98,0.176,3.458,0.345,4.34,0.461c29.21,5.669,46.273,29.301,46.273,64.297 c0,31.137-18.507,56.637-45.318,64h-18.682c-11.782,0-21.333,9.551-21.333,21.333c0,11.782,9.551,21.333,21.333,21.333h23.793 l2.395-0.56c47.782-11.165,80.479-54.762,80.479-106.107C512.003,207.491,487.868,168.834,446.856,154.095z"/> <path d="M344.993,421.485c11.169-16.863,17.679-37.079,17.679-58.818c0-58.907-47.759-106.667-106.667-106.667 s-106.667,47.759-106.667,106.667s47.759,106.667,106.667,106.667c21.739,0,41.956-6.51,58.818-17.679l54.103,54.103 c8.331,8.331,21.839,8.331,30.17,0s8.331-21.839,0-30.17L344.993,421.485z M192.005,362.667c0-35.343,28.657-64,64-64 s64,28.657,64,64c0,17.661-7.156,33.651-18.725,45.232c-0.007,0.007-0.015,0.013-0.022,0.02s-0.013,0.015-0.02,0.022 c-11.58,11.57-27.571,18.725-45.232,18.725C220.662,426.667,192.005,398.01,192.005,362.667z"/> </g> </g> </g> </g>
</svg>